<svg xmlns="http://www.w3.org/2000/svg" xmlns:xlink="http://www.w3.org/1999/xlink" width="512" zoomAndPan="magnify" viewBox="0 0 384 383.999986" height="512" preserveAspectRatio="xMidYMid meet" version="1.0"><defs><clipPath id="59157d65d6"><path d="M 12.109375 157 L 227 157 L 227 372 L 12.109375 372 Z M 12.109375 157 " clip-rule="nonzero"/></clipPath><clipPath id="925d4456d9"><path d="M 117 12.109375 L 372.109375 12.109375 L 372.109375 267 L 117 267 Z M 117 12.109375 " clip-rule="nonzero"/></clipPath></defs><g clip-path="url(#59157d65d6)"><path fill="#6699ff" d="M 185.285156 274.796875 L 130.460938 329.621094 C 119.808594 340.273438 105.785156 345.597656 91.835938 345.597656 C 78.410156 345.597656 65.058594 340.648438 54.785156 330.671875 C 44.433594 320.621094 38.660156 307.121094 38.585938 292.648438 C 38.507812 278.171875 44.058594 264.597656 54.257812 254.398438 L 109.609375 199.046875 C 109.085938 194.996094 108.785156 190.871094 108.785156 186.746094 C 108.785156 176.695312 110.433594 166.796875 113.660156 157.570312 L 35.507812 235.722656 C 20.433594 250.796875 12.109375 270.898438 12.109375 292.273438 C 12.109375 313.421875 20.285156 333.371094 35.132812 348.445312 C 49.984375 363.523438 69.933594 371.847656 91.460938 371.921875 L 91.757812 371.921875 C 113.585938 371.921875 134.058594 363.523438 149.433594 348.148438 L 226.835938 270.746094 C 217.609375 273.972656 207.785156 275.621094 197.660156 275.621094 C 193.460938 275.621094 189.335938 275.320312 185.285156 274.796875 Z M 185.285156 274.796875 " fill-opacity="1" fill-rule="nonzero"/></g><g clip-path="url(#925d4456d9)"><path fill="#003399" d="M 348.710938 35.695312 C 333.109375 20.097656 312.632812 12.296875 292.160156 12.296875 C 271.683594 12.296875 251.210938 20.097656 235.609375 35.695312 L 141.109375 130.195312 C 139.460938 131.847656 137.882812 133.570312 136.382812 135.296875 L 136.308594 135.371094 C 136.160156 135.523438 136.007812 135.746094 135.859375 135.898438 C 135.859375 135.898438 135.859375 135.898438 135.785156 135.972656 C 124.007812 150.222656 117.632812 167.996094 117.632812 186.746094 C 117.632812 191.097656 118.007812 195.371094 118.683594 199.648438 C 118.757812 199.871094 118.757812 200.097656 118.757812 200.246094 C 121.460938 216.523438 129.183594 231.445312 141.035156 243.296875 C 152.882812 255.148438 167.882812 262.871094 184.085938 265.570312 C 184.308594 265.570312 184.535156 265.648438 184.683594 265.648438 C 188.882812 266.320312 193.234375 266.695312 197.585938 266.695312 C 216.335938 266.695312 234.109375 260.320312 248.359375 248.546875 C 248.359375 248.546875 248.359375 248.546875 248.433594 248.472656 C 248.585938 248.320312 248.808594 248.171875 248.960938 248.023438 L 249.035156 247.945312 C 250.835938 246.445312 252.484375 244.871094 254.132812 243.222656 L 348.632812 148.722656 C 379.910156 117.597656 379.910156 66.898438 348.710938 35.695312 Z M 329.960938 130.121094 L 235.460938 224.621094 C 230.433594 229.648438 224.507812 233.621094 218.132812 236.246094 C 211.757812 238.871094 204.785156 240.296875 197.660156 240.296875 L 197.285156 240.296875 C 182.808594 240.222656 169.308594 234.445312 159.257812 224.097656 C 141.410156 205.722656 139.683594 177.222656 153.785156 156.445312 C 154.007812 155.921875 154.308594 155.398438 154.757812 155.023438 C 154.835938 154.945312 154.910156 154.871094 154.984375 154.871094 C 156.632812 152.695312 158.433594 150.523438 160.382812 148.570312 L 253.757812 54.972656 C 274.609375 34.121094 308.585938 33.597656 329.433594 53.847656 C 339.785156 63.898438 345.558594 77.398438 345.632812 91.871094 C 345.710938 106.347656 340.160156 119.921875 329.960938 130.121094 Z M 329.960938 130.121094 " fill-opacity="1" fill-rule="nonzero"/></g><path fill="#6699ff" d="M 202.007812 119.246094 L 175.910156 145.347656 C 180.710938 144.371094 185.734375 143.996094 190.683594 144.371094 C 203.433594 145.347656 215.433594 150.820312 224.507812 159.898438 C 233.585938 168.972656 239.058594 180.972656 240.035156 193.722656 C 240.410156 198.671875 240.109375 203.695312 239.058594 208.496094 L 265.160156 182.398438 C 262.160156 166.722656 254.585938 152.546875 243.183594 141.222656 C 231.859375 129.820312 217.609375 122.246094 202.007812 119.246094 Z M 202.007812 119.246094 " fill-opacity="1" fill-rule="nonzero"/><path fill="#003399" d="M 54.632812 129.523438 L 94.609375 140.246094 C 94.984375 140.320312 95.359375 140.398438 95.734375 140.398438 C 97.683594 140.398438 99.484375 139.121094 100.007812 137.097656 C 100.609375 134.773438 99.257812 132.296875 96.859375 131.695312 L 56.882812 120.972656 C 54.558594 120.371094 52.085938 121.722656 51.484375 124.121094 C 50.882812 126.445312 52.308594 128.847656 54.632812 129.523438 Z M 54.632812 129.523438 " fill-opacity="1" fill-rule="nonzero"/><path fill="#003399" d="M 112.683594 119.023438 C 113.585938 119.921875 114.710938 120.296875 115.835938 120.296875 C 116.960938 120.296875 118.085938 119.847656 118.984375 119.023438 C 120.710938 117.296875 120.710938 114.523438 118.984375 112.722656 L 74.507812 68.246094 C 72.785156 66.523438 70.007812 66.523438 68.285156 68.246094 C 66.558594 69.972656 66.558594 72.746094 68.285156 74.546875 Z M 112.683594 119.023438 " fill-opacity="1" fill-rule="nonzero"/><path fill="#003399" d="M 131.507812 97.046875 C 132.035156 98.996094 133.835938 100.347656 135.785156 100.347656 C 136.160156 100.347656 136.535156 100.273438 136.910156 100.195312 C 139.234375 99.597656 140.660156 97.121094 140.058594 94.796875 L 129.335938 54.820312 C 128.734375 52.496094 126.257812 51.070312 123.933594 51.671875 C 121.609375 52.273438 120.183594 54.746094 120.785156 57.070312 Z M 131.507812 97.046875 " fill-opacity="1" fill-rule="nonzero"/><path fill="#003399" d="M 252.710938 287.472656 C 252.109375 285.148438 249.632812 283.722656 247.308594 284.320312 C 244.910156 284.921875 243.558594 287.398438 244.160156 289.722656 L 254.882812 329.695312 C 255.410156 331.648438 257.210938 332.996094 259.160156 332.996094 C 259.535156 332.996094 259.910156 332.921875 260.285156 332.847656 C 262.609375 332.246094 264.035156 329.773438 263.433594 327.445312 Z M 252.710938 287.472656 " fill-opacity="1" fill-rule="nonzero"/><path fill="#003399" d="M 271.609375 265.496094 C 269.882812 263.773438 267.109375 263.773438 265.308594 265.496094 C 263.585938 267.222656 263.585938 269.996094 265.308594 271.722656 L 309.785156 316.195312 C 310.683594 317.097656 311.808594 317.472656 312.933594 317.472656 C 314.058594 317.472656 315.183594 317.023438 316.085938 316.195312 C 317.808594 314.472656 317.808594 311.695312 316.085938 309.972656 Z M 271.609375 265.496094 " fill-opacity="1" fill-rule="nonzero"/><path fill="#003399" d="M 329.585938 254.996094 L 289.609375 244.347656 C 287.285156 243.746094 284.808594 245.097656 284.210938 247.496094 C 283.609375 249.820312 284.960938 252.296875 287.359375 252.898438 L 327.335938 263.621094 C 327.710938 263.695312 328.085938 263.773438 328.460938 263.773438 C 330.410156 263.773438 332.210938 262.496094 332.734375 260.472656 C 333.410156 258.070312 331.984375 255.671875 329.585938 254.996094 Z M 329.585938 254.996094 " fill-opacity="1" fill-rule="nonzero"/></svg>